inDegrees=no
num_controls=7
num_derivatives=13
num_iterations=125
num_multipliers=7
num_parameters=0
num_slacks=7
num_states=26
objective=0.529752
objective_accelerations=0.012881
objective_balance=0.001981
objective_effort=0.021859
objective_height=0.481880
objective_ligament=0.011152
solver_duration=1616.799222
status=Solve_Succeeded
success=true
DataType=double
version=3
OpenSimVersion=4.5
endheader
time	/jointset/ground_pelvis/pelvis_tilt/value	/jointset/ground_pelvis/pelvis_tx/value	/jointset/ground_pelvis/pelvis_ty/value	/jointset/hip_l/hip_flexion_l/value	/jointset/hip_l/hip_adduction_l/value	/jointset/hip_l/hip_rotation_l/value	/jointset/back/lumbar_extension/value	/jointset/patellofemoral_l/patellar_flexion_l/value	/jointset/knee_l/knee_flexion_l/value	/jointset/knee_l/knee_adduction_l/value	/jointset/knee_l/knee_rotation_l/value	/jointset/ankle_l/ankle_angle_l/value	/jointset/subtalar_l/subtalar_angle_l/value	/jointset/ground_pelvis/pelvis_tilt/speed	/jointset/ground_pelvis/pelvis_tx/speed	/jointset/ground_pelvis/pelvis_ty/speed	/jointset/hip_l/hip_flexion_l/speed	/jointset/hip_l/hip_adduction_l/speed	/jointset/hip_l/hip_rotation_l/speed	/jointset/back/lumbar_extension/speed	/jointset/patellofemoral_l/patellar_flexion_l/speed	/jointset/knee_l/knee_flexion_l/speed	/jointset/knee_l/knee_adduction_l/speed	/jointset/knee_l/knee_rotation_l/speed	/jointset/ankle_l/ankle_angle_l/speed	/jointset/subtalar_l/subtalar_angle_l/speed	/forceset/tau_hip_flexion_l	/forceset/tau_hip_adduction_l	/forceset/tau_hip_rotation_l	/forceset/tau_knee_flexion_l	/forceset/tau_ankle_angle_l	/forceset/tau_subtalar_angle_l	/forceset/tau_lumbar_extension	lambda_cid13_p0	lambda_cid13_p1	lambda_cid13_p2	lambda_cid13_p3	lambda_cid13_p4	lambda_cid13_p5	lambda_cid14_p0	/jointset/ground_pelvis/pelvis_tilt/accel	/jointset/ground_pelvis/pelvis_tx/accel	/jointset/ground_pelvis/pelvis_ty/accel	/jointset/hip_l/hip_flexion_l/accel	/jointset/hip_l/hip_adduction_l/accel	/jointset/hip_l/hip_rotation_l/accel	/jointset/back/lumbar_extension/accel	/jointset/patellofemoral_l/patellar_flexion_l/accel	/jointset/knee_l/knee_flexion_l/accel	/jointset/knee_l/knee_adduction_l/accel	/jointset/knee_l/knee_rotation_l/accel	/jointset/ankle_l/ankle_angle_l/accel	/jointset/subtalar_l/subtalar_angle_l/accel	gamma_cid13_p0	gamma_cid13_p1	gamma_cid13_p2	gamma_cid13_p3	gamma_cid13_p4	gamma_cid13_p5	gamma_cid14_p0
1	0.05419489548546266	-0.03543076655463976	0.8966882118643202	0.4506624881208173	-0.3023838600269908	-0.2353374574736459	-0.9599298535511857	0.4532664318950074	0.4532664318950001	-0.1305740498553941	-0.1744155346446858	-0.01656576644772732	-0.01271339366633511	0.1262284857013637	0.03469926852072772	0.03834423123085193	-0.2862074436799019	0.02287348864046152	-0.06097844123713778	0.0003726628010644281	-0.1588414103530996	-0.1588414103530991	0.009102937952393524	0.0002070454772159608	-0.0004851937271510119	0.02396668379327683	-0.2419400629008917	0.04357042861694359	-0.0007719183874604022	-0.1200566628225474	0.09651455376755559	0.04434605901215657	0.3490505754678502	-15.82046020134189	-18.64444490741673	4.979654623059859	-3.333663038975598	-733.4619020097746	-77.02742368136757	-23.51901617644603	0.0655842461367234	0.3488908411217891	0.2103545408921318	-1.295864935936668	0.1046179407483534	-0.4131456604136893	1.820033142896213	-1.239619597325336	-1.239619597325345	-0.1053411603953878	0.00631153071235882	-0.06073977851137211	0.09183246787592689	-5.423851104555841e-09	-5.45220271500549e-09	1.133786684146434e-08	5.020685729492697e-09	-2.196065657711018e-08	3.544358484196392e-10	-2.519794930121611e-09
1.01	0.05545967177765296	-0.03506631513859051	0.8970819920897845	0.4477369829312255	-0.3021498545982549	-0.2359678347103969	-0.9598341303360891	0.4516167548122836	0.4516167548122283	-0.1304880131127243	-0.1744132589774033	-0.01657343429486943	-0.0124690214502577	0.1266803576814474	0.03819488037334251	0.04040177306945367	-0.2988311161676438	0.0239202454835619	-0.06509023855398574	0.01883827143418219	-0.1710719613216707	-0.1710719613216702	0.008091609713331656	0.0002428325515677078	-0.001044688350159808	0.02490139595690489	-0.2411463906171263	0.0435410967864286	-0.000797191804614365	-0.1197150902353256	0.09631790666332611	0.04423842240104726	0.3486735561749243	-15.87121710869821	-18.59747615057651	4.98206402413792	-3.374726839681484	-733.2903966122686	-77.0277236656807	-23.53219493885907	0.02802628087203252	0.3504773259552224	0.2019431581756737	-1.236247302507333	0.1036023072765732	-0.4091844179747078	1.869768405889921	-1.211465545961929	-1.211465545962116	-0.1009494195812249	0.00142677605910081	-0.05300170164075	0.09333564936459958	-6.040899162064831e-09	-6.35231662249955e-09	1.295796846103839e-08	5.574386520970177e-09	-2.362463300255409e-08	-1.125052121524127e-10	-2.847497062664412e-09
1.02	0.05672757431102966	-0.03466679141029032	0.8974960455642009	0.4446871152372936	-0.3019056020508512	-0.2366391274504471	-0.9595517622981864	0.4498454336800063	0.4498454336799031	-0.1304124738052289	-0.1744107825433246	-0.01658658656773063	-0.01221549310079234	0.1268537339386418	0.04171373097091393	0.0423988810213172	-0.3110799445479612	0.0249229123740901	-0.06916154189700806	0.03770162736211467	-0.1831702202637988	-0.1831702202638008	0.007003450917488803	0.0002471988364201865	-0.00158207887096835	0.02579791047086715	-0.2403527183333593	0.04351176495591377	-0.0008224652217689627	-0.1193735176480932	0.09612125955909684	0.04413078578994344	0.3482965368820183	-15.9297257095699	-18.54954235483337	4.984767587127955	-3.40706883523067	-733.2380269760987	-77.0370131941002	-23.54599638843394	0.009885101558860982	0.35353859011311	0.1982677635444891	-1.220896114451795	0.09579995023391871	-0.405046865648566	1.899582601859152	-1.213161192036724	-1.213161192036728	-0.1207072717511218	2.737281250508915e-05	-0.05631895807083348	0.08419293794276653	-6.520552878759547e-09	-6.826246635490672e-09	1.352279864406857e-08	6.325125662441006e-09	-2.544539543629062e-08	-3.803761333643039e-10	-2.939213933921074e-09
1.03	0.05799614433402007	-0.03423194902592421	0.8979298155035574	0.4415161855139314	-0.3016514833937647	-0.2373509781956152	-0.9590791361916312	0.4479536756997657	0.4479536756996937	-0.1303481107730843	-0.1744083930715137	-0.0166049727475222	-0.01195311889529593	0.1268451943546861	0.04525998282772666	0.04434959597717086	-0.3230864995800818	0.0258999049623999	-0.07320670356494471	0.05685509551753438	-0.1951705821047727	-0.1951705821047863	0.00586630184151606	0.0002281971312126259	-0.002088489929007593	0.0266782038692978	-0.2394602012246875	0.04348477699624251	-0.0008453792407530549	-0.1189507462713924	0.09585792254535105	0.04402595778878257	0.3477776230108259	-15.99986335239173	-18.50178131922039	4.988628532777202	-3.44792572938884	-733.0455948595835	-77.04781185125015	-23.56034867906624	-0.008484973439241676	0.3559554424104968	0.1926412660879653	-1.187610715006153	0.09851239509635838	-0.4039683356046268	1.927954157672013	-1.191854021946988	-1.191854021946874	-0.110647518868006	-0.003235656599630141	-0.04680271657667501	0.09013814282189161	-6.998804612384729e-09	-7.295827833231763e-09	1.407686075121563e-08	7.077875399319932e-09	-2.726775772725462e-08	-6.462157266235392e-10	-3.028522792307469e-09
1.04	0.05926417666415765	-0.03376148673120096	0.8983829261733689	0.4382257751367651	-0.301387622114402	-0.2381032240611102	-0.9584140303564638	0.4459422380327515	0.4459422380327109	-0.1302952049903687	-0.1744062679596382	-0.01662822314527541	-0.0116819036354095	0.1267461953680719	0.04883771304234578	0.04626702711231281	-0.3349760753087487	0.02687143682942931	-0.07724056596241793	0.07619757308449962	-0.207106157618468	-0.2071061576184685	0.004712001031637025	0.0001943268492750892	-0.002554922463295009	0.02756612134887553	-0.2385676841160166	0.04345778903657123	-0.0008682932597374696	-0.1185279748946917	0.09559458553160517	0.04392112978762123	0.3472587091396326	-16.07765682780748	-18.45309406022195	4.992814990761302	-3.480543538832982	-732.9709936047875	-77.06762267355118	-23.57517342323043	-0.008206778972850092	0.3598342616743868	0.1916109994021473	-1.197500253759816	0.09470780597784173	-0.4027870115558801	1.93738448416826	-1.200203926576076	-1.200203926576062	-0.124137618532379	-0.002946342557515583	-0.04832325332046784	0.08571775417217906	-7.469819015926602e-09	-7.645793922934367e-09	1.50147678182911e-08	7.672758639920227e-09	-2.881508181148649e-08	-9.448447814942997e-10	-3.177388035828962e-09
1.05	0.06053083428316319	-0.03325508541659652	0.8988550486826313	0.434816970712224	-0.3011140729266985	-0.2388957221053112	-0.9575546701151221	0.4438117619175738	0.4438117619175508	-0.1302539439733349	-0.1744045261296024	-0.01665592686746326	-0.01140176769975725	0.1265766150590116	0.05244822794274067	0.04815228029601457	-0.346773045450262	0.02783789719266008	-0.08125413523949758	0.09569505504056876	-0.218978885192313	-0.2189788851923125	0.003536602619595454	0.0001548523985473455	-0.002977958950299607	0.02846312933818155	-0.2374950973326243	0.04340800527705731	-0.0008946399367798972	-0.1181063020162221	0.09536575738900728	0.04377723447394357	0.3465412745927134	-16.13377101315903	-18.39195484752283	4.995837647544971	-3.532008418471935	-732.7132375100136	-77.06839419401652	-23.59038949005368	-0.02264066512704031	0.3625134723474128	0.1861972249260207	-1.169031404486146	0.09754017712192813	-0.3999091583769742	1.959017029835628	-1.179279471927127	-1.179279471926975	-0.1147816653985716	-0.004322578441356605	-0.03811508782848295	0.09200137172038829	-7.940607252903372e-09	-7.992022040510767e-09	1.596467004036432e-08	8.262708552511816e-09	-3.035381095175799e-08	-1.24449850704042e-09	-3.328114416385927e-09
1.06	0.06179553469742725	-0.03271240827936303	0.8993458666731451	0.4312905493842397	-0.3008308741302377	-0.2397282092968015	-0.9564997176585177	0.4415628640668299	0.4415628640668248	-0.130224545082993	-0.1744031539604962	-0.01668762520280882	-0.01111259987412982	0.1263547544197808	0.05609287756815479	0.05000612336259135	-0.3584994559973373	0.02880135858094043	-0.08523839542029593	0.1153160161370138	-0.2307905047316944	-0.2307905047316926	0.002339575693204933	0.0001203946633815186	-0.003353845094844166	0.02937249934391061	-0.2364225105492329	0.04335822151754318	-0.0009209866138217594	-0.1176846291377836	0.09513692924640924	0.04363333916026561	0.3458238400457145	-16.19749303844006	-18.32990250660133	4.999193265188753	-3.575830122290084	-732.5728847183759	-77.07827637211651	-23.60590761747337	-0.0186628450069671	0.36666120667823	0.1853289759771521	-1.183388334872201	0.09410801098775781	-0.3969251922996156	1.962080312243446	-1.187982319683333	-1.187982319683279	-0.1284633214029523	-0.001942999445131848	-0.03889318483035076	0.08819015745678867	-8.288272229952579e-09	-8.390599811639092e-09	1.674390807910326e-08	8.648460254059277e-09	-3.144546180028211e-08	-1.500827574095632e-09	-3.472310257003626e-09
1.07	0.0630576573048099	-0.03213312064601745	0.899855043703961	0.4276473782775709	-0.300538065855462	-0.2406004114942163	-0.9552478800263448	0.4391962232170855	0.4391962232170768	-0.1302072195910431	-0.1744021430660329	-0.01672284614517038	-0.01081428629620494	0.1260506604248005	0.05976965866190118	0.05182173666715667	-0.3701057110199389	0.02975923375851132	-0.08919885951140985	0.1350787401227183	-0.2425202092611077	-0.2425202092610967	0.00112342299191052	7.880289285142446e-05	-0.003682152783504543	0.03029185224554859	-0.2351619680700078	0.04325137899504596	-0.000950425451279189	-0.1172499570601217	0.094890479884051	0.04348704412840853	0.3449046425307495	-16.25453256847795	-18.26841379151107	5.003136494645847	-3.619366735391677	-732.2352260997259	-77.09817710601871	-23.62163547409211	-0.03914865034287501	0.3689398048309898	0.1785390699167351	-1.144886594583676	0.09646843505187444	-0.3951330684172957	1.987452915507352	-1.162845400890991	-1.162845400889956	-0.1185069949001717	-0.005710712013531235	-0.02857173032793387	0.09405273025076764	-8.629388097431171e-09	-8.791962138807413e-09	1.751406823574996e-08	9.023350348636303e-09	-3.25133318886069e-08	-1.754852138039626e-09	-3.616158728475619e-09
1.08	0.06431616577752287	-0.03151691455291279	0.9003821491802665	0.42388901611895	-0.3002357105961289	-0.2415121235427218	-0.95379759825956	0.4367128091457826	0.4367128091457707	-0.1302021187761873	-0.1744016367785065	-0.01676110459830737	-0.01050673021451699	0.1256319274858478	0.06347656951997455	0.05359181246054399	-0.3815376663877211	0.03071075549248871	-0.09314036563845982	0.1550048430593592	-0.2541451490433477	-0.2541451490433319	-0.000105359725683451	1.947327605804115e-05	-0.003961347249925728	0.03122100009652517	-0.2339014255907841	0.04314453647254841	-0.0009798642887358477	-0.1168152849824605	0.09464403052169254	0.04334074909655102	0.3439854450157838	-16.31911061426523	-18.20603145904331	5.00742421529703	-3.655967316619043	-732.0143433295528	-77.12726360381259	-23.63748040893849	-0.04159063380142153	0.3726871595436247	0.1762214737415514	-1.148528403908234	0.09283732226906015	-0.3931335994868226	1.994756102430741	-1.167029370248684	-1.167029370248683	-0.1309893246628637	-0.005490568697789343	-0.02907054038238503	0.09014914732450813	-9.069203622363414e-09	-8.96843665693054e-09	1.828070102329016e-08	9.680404850473312e-09	-3.424487237856595e-08	-2.037890127985021e-09	-3.701515888646073e-09
